<svg width="20" height="18" viewBox="0 0 20 18" fill="none" xmlns="http://www.w3.org/2000/svg">
<path fill-rule="evenodd" clip-rule="evenodd" d="M18.9506 10.2949C19.1714 10.2963 19.3818 10.3785 19.5324 10.522C19.6835 10.6628 19.7619 10.8531 19.7488 11.0473C19.5089 14.6112 16.1889 17.3923 12.174 17.3927H8.16705C4.15207 17.3923 0.832105 14.6112 0.592253 11.0473C0.581737 10.8535 0.65942 10.6642 0.807763 10.522C0.957329 10.3767 1.1689 10.2942 1.39044 10.2949H4.27828C4.45427 10.2964 4.61057 10.1952 4.66301 10.0458C4.87146 9.45635 5.48472 9.05452 6.17957 9.05208H10.1745C10.8693 9.05452 11.4826 9.45635 11.6911 10.0458C11.7431 10.1939 11.8973 10.2948 12.0718 10.2949H16.3557C16.5761 10.2949 16.7548 10.136 16.7548 9.94001V2.48736C16.7557 2.20686 16.5707 1.9522 16.2828 1.83756C15.9949 1.72291 15.6581 1.76978 15.4234 1.95715L15.0961 2.24816C14.9896 2.34353 14.9529 2.48421 15.0011 2.61157C15.2795 3.34256 15.0683 4.15066 14.456 4.6976L14.2963 4.84311C13.9846 5.12019 13.4794 5.12019 13.1677 4.84311L11.0565 2.96504C10.7449 2.68787 10.7449 2.23858 11.0565 1.96141L11.2201 1.81591C11.8425 1.28721 12.7411 1.1051 13.5596 1.34178C13.7018 1.38194 13.8572 1.34827 13.9627 1.25448L14.3323 0.925849C15.0306 0.35201 16.0446 0.199975 16.916 0.538463C17.7873 0.876951 18.3509 1.64182 18.3519 2.48736V9.94001C18.3519 10.136 18.5306 10.2949 18.751 10.2949H18.9506ZM9.77147 14.731C9.99189 14.731 10.1706 14.5722 10.1706 14.3762V10.8273C10.1706 10.6313 9.99189 10.4724 9.77147 10.4724H6.57872C6.35831 10.4724 6.17963 10.6313 6.17963 10.8273V14.3762C6.17963 14.5722 6.35831 14.731 6.57872 14.731H9.77147Z" fill="black"/>
<path d="M7.77607 4.67918C7.89132 4.68008 8.00541 4.65877 8.11051 4.61672L9.56002 4.02193C9.81938 3.91606 9.99552 3.69519 10.0221 3.44253C10.0487 3.18986 9.92163 2.94378 9.68885 2.79699C9.45607 2.65019 9.15289 2.62498 8.89354 2.73085L7.44163 3.32493C7.10126 3.46459 6.91603 3.79606 6.99644 4.12165C7.07684 4.44723 7.40121 4.67919 7.77607 4.67918Z" fill="black"/>
<path d="M11.8643 8.52695C12.2696 8.68072 12.7384 8.51327 12.9115 8.1529L13.5389 6.84691C13.7007 6.48868 13.5108 6.08115 13.1116 5.92959C12.7123 5.77803 12.25 5.93803 12.071 6.28974L11.4476 7.59786C11.2758 7.95675 11.4619 8.37167 11.8643 8.52695Z" fill="black"/>
<path d="M8.96209 6.80016C9.27224 7.07862 9.7775 7.08084 10.0907 6.80513L11.2258 5.80718C11.5305 5.53027 11.5292 5.0872 11.2229 4.81169C10.9165 4.53617 10.4183 4.53003 10.1035 4.79788L8.96848 5.79653C8.65511 6.07213 8.65225 6.52143 8.96209 6.80016Z" fill="black"/>
</svg>
