<svg width="18" height="12" viewBox="0 0 18 12" fill="none" xmlns="http://www.w3.org/2000/svg">
<path d="M7.93237 1.61287H10.2176C11.2751 1.61373 12.1932 2.26078 12.4357 3.17607C12.4561 3.25237 12.5326 3.30631 12.6208 3.30649H16.1227C16.1732 3.30666 16.2217 3.28893 16.2575 3.25723C16.2932 3.22554 16.3133 3.18247 16.3133 3.13756V1.44333C16.3133 1.08398 16.1528 0.739356 15.8669 0.485316C15.5811 0.231277 15.1935 0.0886415 14.7894 0.0888063H3.36055C2.95644 0.0886415 2.56882 0.231277 2.283 0.485316C1.99719 0.739356 1.83661 1.08398 1.83661 1.44333V3.13756C1.83661 3.18247 1.85672 3.22554 1.8925 3.25723C1.92827 3.28893 1.97677 3.30666 2.02728 3.30649H5.52912C5.61749 3.30677 5.69431 3.25263 5.7142 3.17607C5.95672 2.26078 6.87488 1.61373 7.93237 1.61287Z" fill="black"/>
<path d="M1.45594 4.32312C1.2538 4.32296 1.05988 4.39429 0.916941 4.52139C0.774004 4.6485 0.693785 4.82094 0.69397 5.00069V8.55747C0.693969 8.8795 0.948853 9.15703 1.30369 9.22138C1.39222 9.23757 1.45581 9.30682 1.45594 9.3872V10.7591C1.45594 11.1333 1.79709 11.4367 2.21791 11.4367C2.63873 11.4367 2.97988 11.1333 2.97988 10.7591V9.40459C2.97969 9.35968 2.99963 9.31655 3.03527 9.28474C3.07092 9.25292 3.11934 9.23504 3.16985 9.23504H14.98C15.0305 9.23504 15.079 9.25292 15.1146 9.28474C15.1503 9.31655 15.1702 9.35968 15.17 9.40459V10.7591C15.17 11.1333 15.5111 11.4367 15.932 11.4367C16.3528 11.4367 16.6939 11.1333 16.6939 10.7591V9.3872C16.6941 9.30682 16.7577 9.23757 16.8462 9.22138C17.201 9.15703 17.4559 8.8795 17.4559 8.55747V5.00069C17.4561 4.82094 17.3759 4.6485 17.2329 4.52139C17.09 4.39429 16.8961 4.32296 16.6939 4.32312H1.45594Z" fill="black"/>
</svg>
