<svg width="513" height="513" viewBox="0 0 513 513" fill="none" xmlns="http://www.w3.org/2000/svg">
<path d="M25.65 500.174H265.05V4.27332H25.65V500.174Z" fill="#D6C7C7"/>
<path d="M102.6 500.174H188.1V414.673H102.6V500.174Z" fill="#9E9086"/>
<path d="M68.4004 243.674H222.3V158.173H68.4004V243.674Z" fill="#28BAE8"/>
<path d="M111.15 218.026C108.96 218.026 106.772 217.188 105.105 215.521C101.761 212.178 101.761 206.774 105.105 203.432L122.205 186.331C125.549 182.988 130.952 182.988 134.295 186.331C137.638 189.675 137.638 195.078 134.295 198.421L117.194 215.521C115.527 217.188 113.339 218.026 111.15 218.026Z" fill="#1E94AF"/>
<path d="M162.45 218.026C160.26 218.026 158.072 217.188 156.405 215.521C153.061 212.178 153.061 206.774 156.405 203.432L173.505 186.331C176.849 182.988 182.252 182.988 185.595 186.331C188.938 189.675 188.938 195.078 185.595 198.421L168.495 215.521C166.827 217.188 164.639 218.026 162.45 218.026Z" fill="#1E94AF"/>
<path d="M68.4004 123.974H222.3V38.474H68.4004V123.974Z" fill="#28BAE8"/>
<path d="M111.15 98.3267C108.96 98.3267 106.772 97.489 105.105 95.8218C101.761 92.4783 101.761 87.0747 105.105 83.7322L122.205 66.6319C125.549 63.2884 130.952 63.2884 134.295 66.6319C137.637 69.9754 137.638 75.3789 134.295 78.7214L117.194 95.8218C115.527 97.488 113.339 98.3267 111.15 98.3267Z" fill="#1E94AF"/>
<path d="M162.45 98.3267C160.26 98.3267 158.072 97.489 156.405 95.8218C153.061 92.4783 153.061 87.0747 156.405 83.7322L173.505 66.6319C176.849 63.2884 182.252 63.2884 185.595 66.6319C188.937 69.9754 188.938 75.3789 185.595 78.7214L168.495 95.8218C166.827 97.488 164.639 98.3267 162.45 98.3267Z" fill="#1E94AF"/>
<path d="M68.4004 363.373H222.3V277.874H68.4004V363.373Z" fill="#28BAE8"/>
<path d="M111.15 337.726C108.96 337.726 106.772 336.889 105.105 335.221C101.761 331.878 101.761 326.474 105.105 323.132L122.205 306.032C125.549 302.688 130.952 302.688 134.295 306.032C137.637 309.375 137.638 314.779 134.295 318.121L117.194 335.221C115.527 336.889 113.339 337.726 111.15 337.726Z" fill="#1E94AF"/>
<path d="M162.45 337.726C160.26 337.726 158.072 336.889 156.405 335.221C153.061 331.878 153.061 326.474 156.405 323.132L173.505 306.032C176.849 302.688 182.252 302.688 185.595 306.032C188.937 309.375 188.938 314.779 185.595 318.121L168.495 335.221C166.827 336.889 164.639 337.726 162.45 337.726Z" fill="#1E94AF"/>
<path d="M487.35 320.626C487.35 363.128 452.902 397.576 410.4 397.576C367.898 397.576 333.45 363.128 333.45 320.626C333.45 278.124 367.898 243.676 410.4 243.676C452.902 243.676 487.35 278.124 487.35 320.626Z" fill="#24AE5F"/>
<path d="M410.4 363.376C408.211 363.376 406.022 362.539 404.355 360.871L378.705 335.221C375.362 331.878 375.362 326.474 378.705 323.132C382.049 319.788 387.452 319.788 390.795 323.132L416.445 348.782C419.788 352.125 419.788 357.529 416.445 360.871C414.778 362.539 412.589 363.376 410.4 363.376Z" fill="#804537"/>
<path d="M410.4 363.376C408.211 363.376 406.023 362.539 404.355 360.871C401.012 357.528 401.012 352.124 404.355 348.782L430.005 323.132C433.349 319.788 438.752 319.788 442.095 323.132C445.438 326.475 445.438 331.879 442.095 335.221L416.445 360.871C414.778 362.539 412.589 363.376 410.4 363.376Z" fill="#804537"/>
<path d="M410.4 508.727C405.672 508.727 401.85 504.905 401.85 500.177V354.827C401.85 350.098 405.672 346.277 410.4 346.277C415.128 346.277 418.95 350.098 418.95 354.827V500.177C418.95 504.904 415.128 508.727 410.4 508.727Z" fill="#804537"/>
<path d="M504.45 508.727H8.54967C3.83047 508.727 0 504.905 0 500.177C0 495.449 3.83047 491.627 8.54967 491.627H504.449C509.178 491.627 512.999 495.449 512.999 500.177C513 504.904 509.179 508.727 504.45 508.727Z" fill="#95A5A5"/>
</svg>
