<svg width="20" height="21" viewBox="0 0 20 21" fill="none" xmlns="http://www.w3.org/2000/svg">
<path d="M16.8488 6.36297L10.7585 2.65828C10.1746 2.30488 9.45163 2.30739 8.87062 2.66617L2.9014 6.36763C2.39172 6.68376 2.23509 7.35294 2.55051 7.86262C2.86664 8.37266 3.53546 8.52858 4.0455 8.21352L9.82332 4.63106L15.7198 8.2189C15.8961 8.32607 16.0907 8.37625 16.2829 8.37625C16.6488 8.37625 17.0072 8.19094 17.2123 7.85474C17.5237 7.34255 17.3614 6.67444 16.8488 6.36297Z" fill="black" stroke="black" stroke-width="0.000533372"/>
<path d="M12.7663 8.254C12.0022 7.64253 10.8645 7.33679 9.26775 7.33679C8.71936 7.33679 8.22187 7.34862 7.77814 7.3712C6.65125 7.4264 5.76343 8.35795 5.76343 9.48627V17.7096C5.76343 18.3498 6.28816 18.8627 6.92795 18.8627H7.17527C7.8147 18.8627 8.33262 18.3498 8.33262 17.7096V15.0498C8.33262 14.9817 8.36165 14.9153 8.41255 14.8687C8.46309 14.8222 8.53119 14.7985 8.59965 14.8035C8.78388 14.8186 8.9932 14.8257 9.21686 14.8257C10.7463 14.8257 12.0534 14.4526 12.9362 13.6204C13.6158 12.9741 13.9893 12.0243 13.9893 10.9028C13.9889 9.78341 13.4968 8.83179 12.7663 8.254ZM9.20037 12.8393C9.14446 12.8393 9.09069 12.8393 9.04015 12.8386C8.64768 12.8318 8.33226 12.5121 8.33226 12.1203V10.0716C8.33226 9.65652 8.65843 9.3153 9.07313 9.29666C9.17421 9.29164 9.2846 9.28914 9.4036 9.28914C10.6939 9.28914 11.4244 9.91853 11.4244 10.9705C11.4248 12.144 10.5753 12.8393 9.20037 12.8393Z" fill="black" stroke="black" stroke-width="0.000533372"/>
</svg>
